<?xml version="1.0" encoding="UTF-8" standalone="no"?>
<svg
   xmlns:dc="http://purl.org/dc/elements/1.1/"
   xmlns:cc="http://creativecommons.org/ns#"
   xmlns:rdf="http://www.w3.org/1999/02/22-rdf-syntax-ns#"
   xmlns:svg="http://www.w3.org/2000/svg"
   xmlns="http://www.w3.org/2000/svg"
   xmlns:sodipodi="http://sodipodi.sourceforge.net/DTD/sodipodi-0.dtd"
   xmlns:inkscape="http://www.inkscape.org/namespaces/inkscape"
   inkscape:version="1.0 (4035a4fb49, 2020-05-01)"
   sodipodi:docname="gmap.svg"
   id="svg38"
   version="1.1"
   height="48px"
   width="48px"
   viewBox="0 0 48 48">
  <metadata
     id="metadata44">
    <rdf:RDF>
      <cc:Work
         rdf:about="">
        <dc:format>image/svg+xml</dc:format>
        <dc:type
           rdf:resource="http://purl.org/dc/dcmitype/StillImage" />
      </cc:Work>
    </rdf:RDF>
  </metadata>
  <defs
     id="defs42" />
  <sodipodi:namedview
     inkscape:current-layer="svg38"
     inkscape:window-maximized="0"
     inkscape:window-y="0"
     inkscape:window-x="385"
     inkscape:cy="26.639136"
     inkscape:cx="9.2705493"
     inkscape:zoom="6.1135274"
     showgrid="false"
     id="namedview40"
     inkscape:window-height="991"
     inkscape:window-width="1525"
     inkscape:pageshadow="2"
     inkscape:pageopacity="0"
     guidetolerance="10"
     gridtolerance="10"
     objecttolerance="10"
     borderopacity="1"
     bordercolor="#666666"
     pagecolor="#ffffff" />
  <path
     id="path28"
     d="M35.76,26.36h0.01c0,0-3.77,5.53-6.94,9.64c-2.74,3.55-3.54,6.59-3.77,8.06 C24.97,44.6,24.53,45,24,45s-0.97-0.4-1.06-0.94c-0.23-1.47-1.03-4.51-3.77-8.06c-0.42-0.55-0.85-1.12-1.28-1.7L28.24,22l8.33-9.88 C37.49,14.05,38,16.21,38,18.5C38,21.4,37.17,24.09,35.76,26.36z"
     fill="#48b564" />
  <path
     id="path30"
     d="M28.24,22L17.89,34.3c-2.82-3.78-5.66-7.94-5.66-7.94h0.01c-0.3-0.48-0.57-0.97-0.8-1.48L19.76,15 c-0.79,0.95-1.26,2.17-1.26,3.5c0,3.04,2.46,5.5,5.5,5.5C25.71,24,27.24,23.22,28.24,22z"
     fill="#fcc60e" />
  <path
     id="path32"
     d="M28.4,4.74l-8.57,10.18L13.27,9.2C15.83,6.02,19.69,4,24,4C25.54,4,27.02,4.26,28.4,4.74z"
     fill="#2c85eb" />
  <path
     id="path34"
     d="M19.83,14.92L19.76,15l-8.32,9.88C10.52,22.95,10,20.79,10,18.5c0-3.54,1.23-6.79,3.27-9.3 L19.83,14.92z"
     fill="#ed5748" />
  <path
     id="path36"
     d="M28.24,22c0.79-0.95,1.26-2.17,1.26-3.5c0-3.04-2.46-5.5-5.5-5.5c-1.71,0-3.24,0.78-4.24,2L28.4,4.74 c3.59,1.22,6.53,3.91,8.17,7.38L28.24,22z"
     fill="#5695f6" />
</svg>
